<?xml version="1.0" encoding="UTF-8" standalone="no"?>
<!-- Created with Inkscape (http://www.inkscape.org/) -->

<svg
   version="1.1"
   id="svg1"
   width="340.15732"
   height="56.692799"
   viewBox="0 0 340.15732 56.692799"
   sodipodi:docname="MNR-Horizontal.ai"
   xmlns:inkscape="http://www.inkscape.org/namespaces/inkscape"
   xmlns:sodipodi="http://sodipodi.sourceforge.net/DTD/sodipodi-0.dtd"
   xmlns="http://www.w3.org/2000/svg"
   xmlns:svg="http://www.w3.org/2000/svg">
  <defs
     id="defs1">
    <clipPath
       clipPathUnits="userSpaceOnUse"
       id="clipPath2">
      <path
         d="M 0,42.52 H 255.118 V 0 H 0 Z"
         transform="translate(-24.192901,-4.2237001)"
         id="path2" />
    </clipPath>
  </defs>
  <sodipodi:namedview
     id="namedview1"
     pagecolor="#ffffff"
     bordercolor="#000000"
     borderopacity="0.25"
     inkscape:showpageshadow="2"
     inkscape:pageopacity="0.0"
     inkscape:pagecheckerboard="0"
     inkscape:deskcolor="#d1d1d1">
    <inkscape:page
       x="0"
       y="0"
       inkscape:label="1"
       id="page1"
       width="340.15732"
       height="56.692799"
       margin="3.8059068 3.2106667 3.806 3.2114267"
       bleed="0" />
  </sodipodi:namedview>
  <g
     id="layer-MC0"
     inkscape:groupmode="layer"
     inkscape:label="Layer 1">
    <path
       id="path1"
       d="m 0,0 c -0.102,0.092 -1.814,2.317 -4.06,5.804 0.675,0.227 1.332,0.477 1.963,0.758 0.695,0.307 1.36,0.642 1.976,1.007 4.788,2.838 7.333,6.834 6.829,10.715 1.497,-0.121 3.025,-0.058 4.521,0.179 C 6.768,8.344 0.201,0.181 0,0 m -5.597,8.261 c -2.837,4.669 -6.08,10.799 -8.015,17.005 4.227,-0.417 8.11,-1.679 10.765,-2.988 C 0.071,20.766 1.726,18.663 1.835,16.344 1.936,13.965 0.413,11.632 -2.457,9.772 -3.051,9.396 -3.727,9.043 -4.447,8.723 -4.819,8.559 -5.205,8.406 -5.597,8.261 M 0,33.813 c 3.192,0 6.376,-0.187 9.533,-0.556 C 7.331,32.926 5.118,32.313 3.11,31.426 0.171,30.112 -1.834,28.332 -2.538,26.404 c -3.536,0.948 -7.61,1.256 -11.678,0.971 -0.44,1.689 -0.77,3.373 -0.952,5.022 4.985,0.94 10.065,1.416 15.168,1.416 M 4.862,23.115 c -1.706,1.188 -2.586,2.636 -2.478,4.096 0.122,1.698 1.506,3.29 3.918,4.472 0.078,0.045 0.168,0.084 0.252,0.122 1.459,0.646 3.453,1 5.521,1.109 1.034,-0.154 2.066,-0.323 3.093,-0.517 C 14.817,28.583 13.722,24.681 12.27,20.966 9.567,20.951 6.863,21.683 4.862,23.115 M 0,35.441 c -7.373,0 -14.702,-0.939 -21.784,-2.791 C -18.239,19.658 -10.707,7.896 0,-1.369 10.707,7.896 18.239,19.658 21.784,32.65 14.702,34.502 7.373,35.441 0,35.441 m 212.408,-22.284 0.472,1.781 h 12.132 l 1.128,4.196 h -12.132 l 0.473,1.779 h 12.804 l 1.232,4.597 H 209.896 L 205.315,8.422 h 18.92 l 1.271,4.735 z m -11.624,1.924 c -0.438,-1.62 -0.773,-1.828 -2.998,-1.828 h -5.323 c -1.985,0 -2.298,0.532 -1.683,2.839 l 0.469,1.752 c 0.517,1.926 1.171,2.841 3.475,2.841 h 5.43 c 1.779,0 1.787,-0.515 1.631,-1.088 l -0.23,-0.86 h 5.812 l 0.118,0.406 c 0.62,2.235 0.85,3.839 0.069,4.92 -0.838,1.159 -2.784,1.626 -6.71,1.626 h -5.861 c -3.938,0 -7.785,-0.761 -9.268,-6.298 l -1.298,-4.849 c -1.483,-5.532 1.958,-6.303 5.892,-6.303 h 8.042 c 5.69,0 7.177,2.842 7.84,5.316 l 0.517,1.937 h -5.817 z m -25.051,0.551 -1.256,4.804 -3.761,-4.804 z m 3.597,9.878 4.823,-17.088 h -6.493 l -0.785,2.876 h -9.612 l -2.225,-2.876 h -6.518 l 13.828,17.088 z m -23.665,-6.169 c 0.269,0.996 0.091,1.308 -1.522,1.308 h -7.388 l -0.842,-3.134 h 7.835 c 1.209,0 1.548,0.428 1.778,1.3 z m 5.934,0.933 -0.274,-1.038 c -0.499,-1.859 -1.223,-3.227 -2.993,-3.993 0.897,-0.472 1.462,-1.441 0.868,-3.644 l -0.851,-3.177 h -5.807 l 0.634,2.37 c 0.428,1.585 0.095,1.856 -1.137,1.856 h -7.427 L 143.48,8.422 h -5.808 l 4.577,17.088 h 15.464 c 3.66,0 4.861,-1.613 3.886,-5.236 m -29.284,-5.857 -5.822,11.093 h -8.34 L 113.577,8.422 h 5.808 l 2.975,11.104 5.823,-11.104 h 8.347 l 4.577,17.088 h -5.821 z m -30.605,0.521 h 12.132 l 1.123,4.196 h -12.132 l 0.478,1.779 h 12.804 l 1.237,4.597 H 98.73 L 94.15,8.422 h 18.911 l 1.267,4.735 H 101.229 Z M 83.228,14.406 h 6.207 l -0.018,-0.063 c -0.272,-1.009 -0.945,-1.365 -2.559,-1.365 h -5.331 c -2.199,0 -2.654,0.347 -1.948,2.983 l 0.539,2.019 c 0.706,2.631 1.349,2.979 3.548,2.979 h 5.417 c 1.709,0 2.034,-0.265 1.727,-1.411 l -0.109,-0.41 h 5.727 l 0.251,0.933 c 0.953,3.564 0.377,5.618 -5.362,5.618 h -7.508 c -3.934,0 -7.782,-0.761 -9.265,-6.298 L 73.243,14.542 C 71.76,9.01 75.204,8.239 79.132,8.239 h 6.005 c 5.555,0 8.518,0.231 9.881,5.316 l 1.348,5.037 H 84.352 Z M 67.24,15.713 c -0.498,-1.861 -1.237,-2.46 -3.028,-2.46 h -4.945 c -1.804,0 -2.22,0.599 -1.717,2.46 l 2.619,9.797 h -5.807 l -2.92,-10.873 c -1.149,-4.305 0.609,-6.398 5.374,-6.398 h 7.148 c 4.764,0 7.639,2.093 8.793,6.398 L 75.668,25.51 H 69.863 Z M 45.166,25.51 h 8.319 L 48.909,8.422 H 43.231 L 46.073,19.017 37.303,8.422 H 33.091 L 30.003,19.017 27.167,8.422 h -5.684 l 4.581,17.088 h 8.323 l 2.712,-10.004 z"
       style="fill:#231f20;fill-opacity:1;fill-rule:nonzero;stroke:none"
       transform="matrix(1.3333333,0,0,-1.3333333,32.2572,51.0612)"
       clip-path="url(#clipPath2)" />
  </g>
</svg>
