<svg width="341" height="57" viewBox="0 0 341 57" fill="none" xmlns="http://www.w3.org/2000/svg">
<g clip-path="url(#clip0_5_2)">
<mask id="mask0_5_2" style="mask-type:luminance" maskUnits="userSpaceOnUse" x="0" y="-1" width="341" height="58">
<path d="M0 -0.000520506H340.157V56.6928H0V-0.000520506Z" fill="white"/>
</mask>
<g mask="url(#mask0_5_2)">
<path d="M32.2572 51.0612C32.1212 50.9385 29.8385 47.9719 26.8439 43.3225C27.7439 43.0199 28.6199 42.6865 29.4612 42.3119C30.3879 41.9025 31.2745 41.4559 32.0959 40.9692C38.4799 37.1852 41.8732 31.8572 41.2012 26.6825C43.1972 26.8439 45.2345 26.7599 47.2292 26.4439C41.2812 39.9359 32.5252 50.8199 32.2572 51.0612ZM24.7945 40.0465C21.0119 33.8212 16.6879 25.6479 14.1079 17.3732C19.7439 17.9292 24.9212 19.6119 28.4612 21.3572C32.3519 23.3732 34.5585 26.1772 34.7039 29.2692C34.8385 32.4412 32.8079 35.5519 28.9812 38.0319C28.1892 38.5332 27.2879 39.0039 26.3279 39.4305C25.8319 39.6492 25.3172 39.8532 24.7945 40.0465ZM32.2572 5.9772C36.5132 5.9772 40.7585 6.22654 44.9679 6.71854C42.0319 7.15987 39.0812 7.9772 36.4039 9.15987C32.4852 10.9119 29.8119 13.2852 28.8732 15.8559C24.1585 14.5919 18.7265 14.1812 13.3025 14.5612C12.7159 12.3092 12.2759 10.0639 12.0332 7.8652C18.6799 6.61187 25.4532 5.9772 32.2572 5.9772ZM38.7399 20.2412C36.4652 18.6572 35.2919 16.7265 35.4359 14.7799C35.5985 12.5159 37.4439 10.3932 40.6599 8.8172C40.7639 8.7572 40.8839 8.7052 40.9959 8.65453C42.9412 7.7932 45.5999 7.3212 48.3572 7.17587C49.7359 7.3812 51.1118 7.60654 52.4812 7.8652C52.0132 12.9505 50.5532 18.1532 48.6172 23.1065C45.0132 23.1265 41.4079 22.1505 38.7399 20.2412ZM32.2572 3.80653C22.4265 3.80653 12.6545 5.05853 3.21185 7.52787C7.93852 24.8505 17.9812 40.5332 32.2572 52.8865C46.5332 40.5332 56.5759 24.8505 61.3025 7.52787C51.8599 5.05853 42.0879 3.80653 32.2572 3.80653ZM315.468 33.5185L316.097 31.1439H332.273L333.777 25.5492H317.601L318.232 23.1772H335.304L336.946 17.0479H312.118L306.011 39.8319H331.237L332.932 33.5185H315.468ZM299.969 30.9532C299.385 33.1132 298.938 33.3905 295.972 33.3905H288.874C286.228 33.3905 285.81 32.6812 286.63 29.6052L287.256 27.2692C287.945 24.7012 288.817 23.4812 291.889 23.4812H299.129C301.501 23.4812 301.512 24.1679 301.304 24.9319L300.997 26.0785H308.747L308.904 25.5372C309.73 22.5572 310.037 20.4185 308.996 18.9772C307.878 17.4319 305.284 16.8092 300.049 16.8092H292.235C286.984 16.8092 281.854 17.8239 279.877 25.2065L278.147 31.6719C276.169 39.0479 280.757 40.0759 286.003 40.0759H296.725C304.312 40.0759 306.294 36.2865 307.178 32.9879L307.868 30.4052H300.112L299.969 30.9532ZM266.568 30.2185L264.893 23.8132L259.879 30.2185H266.568ZM271.364 17.0479L277.794 39.8319H269.137L268.09 35.9972H255.275L252.308 39.8319H243.617L262.055 17.0479H271.364ZM239.81 25.2732C240.169 23.9452 239.932 23.5292 237.781 23.5292H227.931L226.808 27.7079H237.255C238.867 27.7079 239.319 27.1372 239.625 25.9745L239.81 25.2732ZM247.722 24.0292L247.357 25.4132C246.692 27.8919 245.727 29.7159 243.367 30.7372C244.563 31.3665 245.316 32.6585 244.524 35.5959L243.389 39.8319H235.647L236.492 36.6719C237.062 34.5585 236.619 34.1972 234.976 34.1972H225.073L223.564 39.8319H215.82L221.922 17.0479H242.541C247.421 17.0479 249.022 19.1985 247.722 24.0292ZM208.677 31.8385L200.914 17.0479H189.795L183.693 39.8319H191.437L195.404 25.0265L203.168 39.8319H214.297L220.4 17.0479H212.638L208.677 31.8385ZM167.871 31.1439H184.047L185.544 25.5492H169.368L170.005 23.1772H187.077L188.727 17.0479H163.897L157.791 39.8319H183.005L184.695 33.5185H167.229L167.871 31.1439ZM143.228 31.8532H151.504L151.48 31.9372C151.117 33.2825 150.22 33.7572 148.068 33.7572H140.96C138.028 33.7572 137.421 33.2945 138.363 29.7799L139.081 27.0879C140.023 23.5799 140.88 23.1159 143.812 23.1159H151.035C153.313 23.1159 153.747 23.4692 153.337 24.9972L153.192 25.5439H160.828L161.163 24.2999C162.433 19.5479 161.665 16.8092 154.013 16.8092H144.003C138.757 16.8092 133.627 17.8239 131.649 25.2065L129.915 31.6719C127.937 39.0479 132.529 40.0759 137.767 40.0759H145.773C153.18 40.0759 157.131 39.7679 158.948 32.9879L160.745 26.2719H144.727L143.228 31.8532ZM121.911 30.1105C121.247 32.5919 120.261 33.3905 117.873 33.3905H111.28C108.875 33.3905 108.32 32.5919 108.991 30.1105L112.483 17.0479H104.74L100.847 31.5452C99.3145 37.2852 101.659 40.0759 108.012 40.0759H117.543C123.895 40.0759 127.728 37.2852 129.267 31.5452L133.148 17.0479H125.408L121.911 30.1105ZM92.4785 17.0479H103.571L97.4692 39.8319H89.8985L93.6879 25.7052L81.9945 39.8319H76.3785L72.2612 25.7052L68.4798 39.8319H60.9012L67.0092 17.0479H78.1065L81.7225 30.3865L92.4785 17.0479Z" fill="white"/>
</g>
</g>
<defs>
<clipPath id="clip0_5_2">
<rect width="340.157" height="56.6928" fill="white"/>
</clipPath>
</defs>
</svg>
