<?xml version="1.0" encoding="utf-8"?>
<!-- Generator: Adobe Illustrator 16.0.0, SVG Export Plug-In . SVG Version: 6.00 Build 0)  -->
<!DOCTYPE svg PUBLIC "-//W3C//DTD SVG 1.1//EN" "http://www.w3.org/Graphics/SVG/1.1/DTD/svg11.dtd">
<svg version="1.1" id="Layer_1" xmlns="http://www.w3.org/2000/svg" xmlns:xlink="http://www.w3.org/1999/xlink" x="0px" y="0px"
	 width="200px" height="200px" viewBox="0 0 200 200" enable-background="new 0 0 200 200" xml:space="preserve">
<rect fill="#DB2327" width="200" height="200"/>
<rect x="5" y="5" fill="#FFFFFF" width="190" height="190"/>
<g>
	<path fill="#DA2527" d="M16.393,88.423l14.695-70h23.981c5.201,0,8.839,0.16,10.914,0.478c3.446,0.478,6.366,1.433,8.759,2.865
		c2.394,1.433,4.212,3.342,5.457,5.73c1.244,2.387,1.867,5.03,1.867,7.926c0,3.884-1.085,7.251-3.255,10.1
		c-2.17,2.849-5.521,5.006-10.052,6.47c3.605,0.987,6.421,2.745,8.448,5.276c2.026,2.53,3.04,5.388,3.04,8.571
		c0,4.202-1.197,8.189-3.59,11.961c-2.393,3.772-5.696,6.486-9.908,8.141c-4.212,1.656-9.973,2.483-17.279,2.483H16.393z
		 M33.194,77.154h13.929c5.84,0,9.756-0.374,11.751-1.122c1.994-0.748,3.59-1.981,4.787-3.701c1.197-1.719,1.795-3.533,1.795-5.443
		c0-2.323-0.861-4.241-2.584-5.754c-1.723-1.511-4.595-2.268-8.616-2.268H37.023L33.194,77.154z M39.56,46.69h11.009
		c4.946,0,8.504-0.35,10.674-1.05c2.169-0.7,3.797-1.846,4.882-3.438c1.084-1.592,1.627-3.294,1.627-5.109
		c0-1.782-0.511-3.247-1.532-4.393c-1.021-1.146-2.473-1.91-4.356-2.292c-1.053-0.191-3.59-0.286-7.61-0.286H43.054L39.56,46.69z"/>
	<path fill="#DA2527" d="M87.665,88.423l14.694-70h14.408l-12.205,58.302h35.707l-2.441,11.698H87.665z"/>
</g>
<g>
	<path fill="#6E6E6E" d="M48.356,154.734c0-3.998,0.596-8.214,1.788-12.644c1.56-5.936,3.936-11.089,7.131-15.458
		c3.194-4.367,7.223-7.821,12.084-10.359c4.861-2.537,10.394-3.807,16.601-3.807c8.316,0,15.034,2.6,20.155,7.798
		c5.121,5.199,7.682,12.091,7.682,20.673c0,7.138-1.667,14.043-4.998,20.719c-3.333,6.676-7.858,11.813-13.575,15.412
		s-12.183,5.398-19.398,5.398c-6.268,0-11.526-1.431-15.775-4.291c-4.25-2.861-7.262-6.407-9.034-10.636
		C49.243,163.31,48.356,159.042,48.356,154.734z M62.022,154.457c0,4.646,1.406,8.537,4.219,11.675
		c2.813,3.139,6.512,4.707,11.098,4.707c3.73,0,7.315-1.238,10.754-3.715c3.439-2.477,6.283-6.229,8.53-11.259
		c2.247-5.03,3.37-9.929,3.37-14.697c0-5.321-1.421-9.498-4.265-12.527c-2.843-3.03-6.466-4.546-10.869-4.546
		c-6.757,0-12.252,3.169-16.486,9.506C64.139,139.938,62.022,146.89,62.022,154.457z"/>
	<path fill="#6E6E6E" d="M154.475,145.137h30.083l-6.054,29.024c-3.547,2.307-7.896,4.261-13.047,5.86s-10.402,2.399-15.752,2.399
		c-8.316,0-14.69-1.892-19.123-5.676c-6.054-5.169-9.08-12.658-9.08-22.472c0-6.583,1.299-12.89,3.897-18.919
		c3.119-7.26,7.551-12.89,13.3-16.889c5.747-3.998,12.503-5.999,20.27-5.999c7.765,0,13.994,1.815,18.688,5.444
		c4.692,3.631,7.803,8.923,9.332,15.875l-12.887,1.476c-1.131-3.813-2.958-6.69-5.479-8.629c-2.522-1.938-5.694-2.907-9.516-2.907
		c-4.465,0-8.561,1.17-12.291,3.507c-3.729,2.339-6.649,5.953-8.759,10.845s-3.164,10.228-3.164,16.012
		c0,5.691,1.284,9.897,3.852,12.62c2.568,2.723,6.329,4.083,11.282,4.083c2.965,0,6.007-0.422,9.126-1.269
		c3.118-0.846,5.808-1.853,8.07-3.022l2.064-10.059h-17.151L154.475,145.137z"/>
</g>
</svg>
