<svg class="icon icon--search w-6" width="19" height="20" viewBox="0 0 19 20" fill="none" xmlns="http://www.w3.org/2000/svg">
  <title>Search</title>
  <path fill-rule="evenodd" clip-rule="evenodd" d="M4.73438 8.56838C4.73438 6.28986 6.58148 4.44275 8.86 4.44275C11.1385 4.44275 12.9856 6.28986 12.9856 8.56838C12.9856 10.8469 11.1385 12.694 8.86 12.694C6.58148 12.694 4.73438 10.8469 4.73438 8.56838ZM8.86 2.69275C5.61498 2.69275 2.98438 5.32336 2.98438 8.56838C2.98438 11.8134 5.61498 14.444 8.86 14.444C9.87037 14.444 10.8212 14.189 11.6516 13.7398L15.3625 17.7362L16.6449 16.5455L13.0564 12.6809C14.0952 11.6211 14.7356 10.1695 14.7356 8.56838C14.7356 5.32336 12.105 2.69275 8.86 2.69275Z" fill="currentColor" stroke="none"></path>
</svg>