<svg class="icon icon--heart w-5 text-theme-15 lg:text-theme-1 group-[.dropdown-black]/menu-drawer:text-theme-12 states:text-theme-18 states:group-[.dropdown-black]/menu-drawer:text-theme-1" width="22" height="23" viewBox="0 0 22 23">
  <title>Wishlist</title>
  <path d="M10.2834 6.33876L10.9085 7.28147L11.5336 6.33876L11.8777 5.81968C13.1171 3.95051 15.5971 3.51986 17.4428 4.88457C19.3114 6.26631 19.79 8.94125 18.5333 10.8366C18.3464 11.1185 17.7666 11.7776 16.9352 12.6634C16.1251 13.5264 15.1276 14.5511 14.1555 15.5359C13.184 16.5201 12.2408 17.4615 11.5403 18.1571C11.2972 18.3984 11.0834 18.6101 10.9078 18.7836C10.7343 18.6127 10.5236 18.4048 10.2841 18.1678C9.58782 17.4788 8.64978 16.5452 7.68181 15.5663C6.71318 14.5868 5.71764 13.5649 4.90524 12.6984C4.07286 11.8106 3.48476 11.1399 3.28366 10.8366C2.02696 8.94127 2.5056 6.26632 4.37423 4.88459C6.21984 3.51988 8.69987 3.95052 9.93924 5.81969L10.2834 6.33876Z" stroke="currentColor" fill="none" stroke-width="1.5"></path>
</svg>